<?xml version="1.0" encoding="UTF-8"?>
<svg id="Layer_1" data-name="Layer 1" xmlns="http://www.w3.org/2000/svg" viewBox="0 0 182.92 172.45">
  <defs>
    <style>
      .cls-1 {
        fill: #fff;
      }

      .cls-2 {
        fill: none;
        stroke: #1d1d1b;
        stroke-width: 1.5px;
      }
    </style>
  </defs>
  <path class="cls-1" d="m179.3,23.17l-11.22,35.61,11.22-35.61Z"/>
  <path class="cls-1" d="m171.21,58.54l10.79-34.33-40.7-17.72-31.02-4.97c-4.23,4.42-11.09,7.23-18.82,7.23s-14.53-2.82-18.82-7.23l-31.08,4.97L.92,24.21l10.79,34.33s17.72.55,22.99,4.97c0,0,3.55,60.26-2.51,108.19h118.55c-6.13-47.94-2.51-108.19-2.51-108.19,5.27-4.41,22.99-4.97,22.99-4.97"/>
  <path class="cls-2" d="m171.21,58.54l10.79-34.33-40.7-17.72-31.02-4.97c-4.23,4.42-11.09,7.23-18.82,7.23s-14.53-2.82-18.82-7.23l-31.08,4.97L.92,24.21l10.79,34.33s17.72.55,22.99,4.97c0,0,3.55,60.26-2.51,108.19h118.55c-6.13-47.94-2.51-108.19-2.51-108.19,5.27-4.41,22.99-4.97,22.99-4.97Z"/>
  <path class="cls-2" d="m141.29,6.49s-8.03,25.75,6.93,57.01"/>
  <path class="cls-2" d="m179.3,23.17l-11.22,35.61,11.22-35.61Z"/>
  <path class="cls-2" d="m41.56,6.49s8.03,25.75-6.87,57.01"/>
  <path class="cls-1" d="m91.46,8.76c7.73,0,14.59-2.82,18.82-7.23l-4.47-.73c-3.56,2.7-8.64,4.35-14.35,4.35s-10.73-1.65-14.34-4.35l-4.48.73c4.29,4.42,11.16,7.23,18.82,7.23"/>
  <path class="cls-2" d="m91.46,8.76c7.73,0,14.59-2.82,18.82-7.23l-4.47-.73c-3.56,2.7-8.64,4.35-14.35,4.35s-10.73-1.65-14.34-4.35l-4.48.73c4.29,4.42,11.16,7.23,18.82,7.23Z"/>
  <path class="cls-1" d="m3.43,23.17l11.16,35.61L3.43,23.17Z"/>
  <path class="cls-2" d="m3.43,23.17l11.16,35.61L3.43,23.17Z"/>
  <path class="cls-2" d="m32.43,169.31h118H32.43Z"/>
</svg>